<?xml version="1.0" encoding="UTF-8"?>
<!DOCTYPE svg PUBLIC "-//W3C//DTD SVG 1.1//EN" "http://www.w3.org/Graphics/SVG/1.1/DTD/svg11.dtd">
<svg xmlns="http://www.w3.org/2000/svg" version="1.1" width="500px" height="500px" style="shape-rendering:geometricPrecision; text-rendering:geometricPrecision; image-rendering:optimizeQuality; fill-rule:evenodd; clip-rule:evenodd" xmlns:xlink="http://www.w3.org/1999/xlink">
<g><path style="opacity:0.985" fill="#1a5631" d="M 398.5,40.5 C 412.271,39.9141 425.938,40.7474 439.5,43C 444.383,44.0722 449.05,45.7388 453.5,48C 455.049,49.214 456.215,50.714 457,52.5C 460.615,102.771 440.115,139.605 395.5,163C 366.747,176.132 337.747,176.799 308.5,165C 305.935,162.244 304.602,158.91 304.5,155C 304.998,104.957 327.665,69.2904 372.5,48C 381.117,44.8507 389.783,42.3507 398.5,40.5 Z"/></g>
<g><path style="opacity:0.991" fill="#f83b1c" d="M 224.5,105.5 C 247.569,105.234 269.903,109.067 291.5,117C 293.795,119.545 295.129,122.545 295.5,126C 293.273,136.926 291.606,147.926 290.5,159C 291.169,164.19 292.003,169.356 293,174.5C 294.458,176.96 296.291,179.127 298.5,181C 309.658,187.274 321.658,190.941 334.5,192C 347.22,192.562 359.886,192.229 372.5,191C 375.539,192.031 378.039,193.865 380,196.5C 389.498,213.995 395.165,232.661 397,252.5C 397.667,308.167 397.667,363.833 397,419.5C 395.363,427.138 390.863,432.305 383.5,435C 328.878,436.65 274.212,436.983 219.5,436C 154.289,430 107.789,397.5 80,338.5C 55.9037,278.451 62.5703,222.118 100,169.5C 132.294,130.27 173.794,108.936 224.5,105.5 Z M 224.5,210.5 C 260.249,211.42 281.416,229.42 288,264.5C 288.667,281.5 288.667,298.5 288,315.5C 287.1,320.737 284.266,324.571 279.5,327C 259.898,328.63 240.232,328.963 220.5,328C 194.039,323.208 177.539,307.708 171,281.5C 167.375,250.578 179.542,228.412 207.5,215C 213.175,213 218.842,211.5 224.5,210.5 Z"/></g>
</svg>
