<?xml version="1.0" encoding="UTF-8"?>
<!DOCTYPE svg PUBLIC "-//W3C//DTD SVG 1.1//EN" "http://www.w3.org/Graphics/SVG/1.1/DTD/svg11.dtd">
<svg xmlns="http://www.w3.org/2000/svg" version="1.1" width="512px" height="512px" style="shape-rendering:geometricPrecision; text-rendering:geometricPrecision; image-rendering:optimizeQuality; fill-rule:evenodd; clip-rule:evenodd" xmlns:xlink="http://www.w3.org/1999/xlink">
<g><path style="opacity:0.996" fill="#1081e0" d="M 236.5,-0.5 C 249.167,-0.5 261.833,-0.5 274.5,-0.5C 332.424,7.02977 376.924,35.3631 408,84.5C 436.32,137.717 442.32,193.384 426,251.5C 421.357,265.783 415.357,279.45 408,292.5C 357.49,365.529 306.99,438.529 256.5,511.5C 255.833,511.5 255.167,511.5 254.5,511.5C 204.01,438.529 153.51,365.529 103,292.5C 74.4699,239.726 68.4699,184.393 85,126.5C 104.163,65.3343 144.329,25.1676 205.5,6C 215.85,3.2312 226.184,1.06453 236.5,-0.5 Z M 247.5,118.5 C 273.686,116.012 293.853,125.679 308,147.5C 321.583,175.658 317.083,200.491 294.5,222C 267.776,240.719 241.776,239.719 216.5,219C 194.399,193.633 192.899,167.133 212,139.5C 221.69,128.743 233.524,121.743 247.5,118.5 Z"/></g>
</svg>
