<?xml version="1.0" encoding="UTF-8"?>
<!DOCTYPE svg PUBLIC "-//W3C//DTD SVG 1.1//EN" "http://www.w3.org/Graphics/SVG/1.1/DTD/svg11.dtd">
<svg xmlns="http://www.w3.org/2000/svg" version="1.1" width="512px" height="512px" style="shape-rendering:geometricPrecision; text-rendering:geometricPrecision; image-rendering:optimizeQuality; fill-rule:evenodd; clip-rule:evenodd" xmlns:xlink="http://www.w3.org/1999/xlink">
<g><path style="opacity:0.992" fill="#0800fd" d="M 236.5,-0.5 C 242.833,-0.5 249.167,-0.5 255.5,-0.5C 255.5,29.5 255.5,59.5 255.5,89.5C 215.795,91.922 187.962,111.255 172,147.5C 158.948,188.662 168.781,223.162 201.5,251C 217.68,262.449 235.68,268.616 255.5,269.5C 255.5,350.167 255.5,430.833 255.5,511.5C 253.833,511.5 252.167,511.5 250.5,511.5C 247.634,510.153 245.134,508.153 243,505.5C 194,425.167 145,344.833 96,264.5C 73.5865,219.91 69.2531,173.577 83,125.5C 109.282,53.1178 160.449,11.1178 236.5,-0.5 Z"/></g>
<g><path style="opacity:1" fill="#000de5" d="M 255.5,-0.5 C 261.833,-0.5 268.167,-0.5 274.5,-0.5C 285.02,0.937768 295.354,3.2711 305.5,6.5C 307.515,7.92381 309.848,8.59047 312.5,8.5C 339.106,16.8121 362.106,30.8121 381.5,50.5C 383.43,54.1002 386.097,57.1002 389.5,59.5C 420.334,93.3028 435.667,133.303 435.5,179.5C 435.765,212.441 427.599,243.108 411,271.5C 363.333,349.833 315.667,428.167 268,506.5C 266.035,508.55 263.868,510.217 261.5,511.5C 259.5,511.5 257.5,511.5 255.5,511.5C 255.5,430.833 255.5,350.167 255.5,269.5C 294.006,267.508 321.506,249.174 338,214.5C 352.962,170.739 342.462,134.573 306.5,106C 291.026,95.7863 274.026,90.2863 255.5,89.5C 255.5,59.5 255.5,29.5 255.5,-0.5 Z"/></g>
<g><path style="opacity:0.898" fill="#0208ef" d="M 305.5,6.5 C 308.152,6.40953 310.485,7.07619 312.5,8.5C 309.848,8.59047 307.515,7.92381 305.5,6.5 Z"/></g>
<g><path style="opacity:0.976" fill="#0209ec" d="M 381.5,50.5 C 384.903,52.8998 387.57,55.8998 389.5,59.5C 386.097,57.1002 383.43,54.1002 381.5,50.5 Z"/></g>
</svg>
